<?xml version="1.0" encoding="utf-8" standalone="no"?>
<!DOCTYPE svg PUBLIC "-//W3C//DTD SVG 1.1//EN"
  "http://www.w3.org/Graphics/SVG/1.1/DTD/svg11.dtd">
<!-- Created with matplotlib (http://matplotlib.org/) -->
<svg height="1080pt" version="1.1" viewBox="0 0 720 1080" width="720pt" xmlns="http://www.w3.org/2000/svg" xmlns:xlink="http://www.w3.org/1999/xlink">
 <defs>
  <style type="text/css">
*{stroke-linecap:butt;stroke-linejoin:round;}
  </style>
 </defs>
 <g id="figure_1">
  <g id="patch_1">
   <path d="M 0 1080 
L 720 1080 
L 720 0 
L 0 0 
z
" style="fill:#ffffff;"/>
  </g>
  <g id="axes_1">
   <g id="patch_2">
    <path d="M 42.84 323.654118 
L 692.08 323.654118 
L 692.08 23.96 
L 42.84 23.96 
z
" style="fill:#ffffff;"/>
   </g>
   <g id="patch_3">
    <path clip-path="url(#p87eab516a8)" d="M 42.84 323.654118 
L 78.908889 323.654118 
L 78.908889 214.852655 
L 42.84 214.852655 
z
" style="fill:#1f77b4;"/>
   </g>
   <g id="patch_4">
    <path clip-path="url(#p87eab516a8)" d="M 78.908889 323.654118 
L 114.977778 323.654118 
L 114.977778 75.665199 
L 78.908889 75.665199 
z
" style="fill:#1f77b4;"/>
   </g>
   <g id="patch_5">
    <path clip-path="url(#p87eab516a8)" d="M 114.977778 323.654118 
L 151.046667 323.654118 
L 151.046667 128.105544 
L 114.977778 128.105544 
z
" style="fill:#1f77b4;"/>
   </g>
   <g id="patch_6">
    <path clip-path="url(#p87eab516a8)" d="M 151.046667 323.654118 
L 187.115556 323.654118 
L 187.115556 164.372698 
L 151.046667 164.372698 
z
" style="fill:#1f77b4;"/>
   </g>
   <g id="patch_7">
    <path clip-path="url(#p87eab516a8)" d="M 187.115556 323.654118 
L 223.184444 323.654118 
L 223.184444 177.605308 
L 187.115556 177.605308 
z
" style="fill:#1f77b4;"/>
   </g>
   <g id="patch_8">
    <path clip-path="url(#p87eab516a8)" d="M 223.184444 323.654118 
L 259.253333 323.654118 
L 259.253333 323.654118 
L 223.184444 323.654118 
z
" style="fill:#1f77b4;"/>
   </g>
   <g id="patch_9">
    <path clip-path="url(#p87eab516a8)" d="M 259.253333 323.654118 
L 295.322222 323.654118 
L 295.322222 201.620045 
L 259.253333 201.620045 
z
" style="fill:#1f77b4;"/>
   </g>
   <g id="patch_10">
    <path clip-path="url(#p87eab516a8)" d="M 295.322222 323.654118 
L 331.391111 323.654118 
L 331.391111 239.357489 
L 295.322222 239.357489 
z
" style="fill:#1f77b4;"/>
   </g>
   <g id="patch_11">
    <path clip-path="url(#p87eab516a8)" d="M 331.391111 323.654118 
L 367.46 323.654118 
L 367.46 267.293 
L 331.391111 267.293 
z
" style="fill:#1f77b4;"/>
   </g>
   <g id="patch_12">
    <path clip-path="url(#p87eab516a8)" d="M 367.46 323.654118 
L 403.528889 323.654118 
L 403.528889 296.208704 
L 367.46 296.208704 
z
" style="fill:#1f77b4;"/>
   </g>
   <g id="patch_13">
    <path clip-path="url(#p87eab516a8)" d="M 403.528889 323.654118 
L 439.597778 323.654118 
L 439.597778 311.401701 
L 403.528889 311.401701 
z
" style="fill:#1f77b4;"/>
   </g>
   <g id="patch_14">
    <path clip-path="url(#p87eab516a8)" d="M 439.597778 323.654118 
L 475.666667 323.654118 
L 475.666667 323.654118 
L 439.597778 323.654118 
z
" style="fill:#1f77b4;"/>
   </g>
   <g id="patch_15">
    <path clip-path="url(#p87eab516a8)" d="M 475.666667 323.654118 
L 511.735556 323.654118 
L 511.735556 308.951217 
L 475.666667 308.951217 
z
" style="fill:#1f77b4;"/>
   </g>
   <g id="patch_16">
    <path clip-path="url(#p87eab516a8)" d="M 511.735556 323.654118 
L 547.804444 323.654118 
L 547.804444 313.852184 
L 511.735556 313.852184 
z
" style="fill:#1f77b4;"/>
   </g>
   <g id="patch_17">
    <path clip-path="url(#p87eab516a8)" d="M 547.804444 323.654118 
L 583.873333 323.654118 
L 583.873333 315.322474 
L 547.804444 315.322474 
z
" style="fill:#1f77b4;"/>
   </g>
   <g id="patch_18">
    <path clip-path="url(#p87eab516a8)" d="M 583.873333 323.654118 
L 619.942222 323.654118 
L 619.942222 319.243248 
L 583.873333 319.243248 
z
" style="fill:#1f77b4;"/>
   </g>
   <g id="patch_19">
    <path clip-path="url(#p87eab516a8)" d="M 619.942222 323.654118 
L 656.011111 323.654118 
L 656.011111 322.673924 
L 619.942222 322.673924 
z
" style="fill:#1f77b4;"/>
   </g>
   <g id="patch_20">
    <path clip-path="url(#p87eab516a8)" d="M 656.011111 323.654118 
L 692.08 323.654118 
L 692.08 323.164021 
L 656.011111 323.164021 
z
" style="fill:#1f77b4;"/>
   </g>
   <g id="matplotlib.axis_1">
    <g id="xtick_1">
     <g id="line2d_1">
      <defs>
       <path d="M 0 0 
L 0 3.5 
" id="mcb37852233" style="stroke:#000000;stroke-width:0.8;"/>
      </defs>
      <g>
       <use style="stroke:#000000;stroke-width:0.8;" x="42.84" xlink:href="#mcb37852233" y="323.654118"/>
      </g>
     </g>
     <g id="text_1">
      <!-- 0 -->
      <defs>
       <path d="M 31.78125 66.40625 
Q 24.171875 66.40625 20.328125 58.90625 
Q 16.5 51.421875 16.5 36.375 
Q 16.5 21.390625 20.328125 13.890625 
Q 24.171875 6.390625 31.78125 6.390625 
Q 39.453125 6.390625 43.28125 13.890625 
Q 47.125 21.390625 47.125 36.375 
Q 47.125 51.421875 43.28125 58.90625 
Q 39.453125 66.40625 31.78125 66.40625 
M 31.78125 74.21875 
Q 44.046875 74.21875 50.515625 64.515625 
Q 56.984375 54.828125 56.984375 36.375 
Q 56.984375 17.96875 50.515625 8.265625 
Q 44.046875 -1.421875 31.78125 -1.421875 
Q 19.53125 -1.421875 13.0625 8.265625 
Q 6.59375 17.96875 6.59375 36.375 
Q 6.59375 54.828125 13.0625 64.515625 
Q 19.53125 74.21875 31.78125 74.21875 
" id="DejaVuSans-30"/>
      </defs>
      <g transform="translate(39.65875 338.252555)scale(0.1 -0.1)">
       <use xlink:href="#DejaVuSans-30"/>
      </g>
     </g>
    </g>
    <g id="xtick_2">
     <g id="line2d_2">
      <g>
       <use style="stroke:#000000;stroke-width:0.8;" x="129.405333" xlink:href="#mcb37852233" y="323.654118"/>
      </g>
     </g>
     <g id="text_2">
      <!-- 2 -->
      <defs>
       <path d="M 19.1875 8.296875 
L 53.609375 8.296875 
L 53.609375 0 
L 7.328125 0 
L 7.328125 8.296875 
Q 12.9375 14.109375 22.625 23.890625 
Q 32.328125 33.6875 34.8125 36.53125 
Q 39.546875 41.84375 41.421875 45.53125 
Q 43.3125 49.21875 43.3125 52.78125 
Q 43.3125 58.59375 39.234375 62.25 
Q 35.15625 65.921875 28.609375 65.921875 
Q 23.96875 65.921875 18.8125 64.3125 
Q 13.671875 62.703125 7.8125 59.421875 
L 7.8125 69.390625 
Q 13.765625 71.78125 18.9375 73 
Q 24.125 74.21875 28.421875 74.21875 
Q 39.75 74.21875 46.484375 68.546875 
Q 53.21875 62.890625 53.21875 53.421875 
Q 53.21875 48.921875 51.53125 44.890625 
Q 49.859375 40.875 45.40625 35.40625 
Q 44.1875 33.984375 37.640625 27.21875 
Q 31.109375 20.453125 19.1875 8.296875 
" id="DejaVuSans-32"/>
      </defs>
      <g transform="translate(126.224083 338.252555)scale(0.1 -0.1)">
       <use xlink:href="#DejaVuSans-32"/>
      </g>
     </g>
    </g>
    <g id="xtick_3">
     <g id="line2d_3">
      <g>
       <use style="stroke:#000000;stroke-width:0.8;" x="215.970667" xlink:href="#mcb37852233" y="323.654118"/>
      </g>
     </g>
     <g id="text_3">
      <!-- 4 -->
      <defs>
       <path d="M 37.796875 64.3125 
L 12.890625 25.390625 
L 37.796875 25.390625 
z
M 35.203125 72.90625 
L 47.609375 72.90625 
L 47.609375 25.390625 
L 58.015625 25.390625 
L 58.015625 17.1875 
L 47.609375 17.1875 
L 47.609375 0 
L 37.796875 0 
L 37.796875 17.1875 
L 4.890625 17.1875 
L 4.890625 26.703125 
z
" id="DejaVuSans-34"/>
      </defs>
      <g transform="translate(212.789417 338.252555)scale(0.1 -0.1)">
       <use xlink:href="#DejaVuSans-34"/>
      </g>
     </g>
    </g>
    <g id="xtick_4">
     <g id="line2d_4">
      <g>
       <use style="stroke:#000000;stroke-width:0.8;" x="302.536" xlink:href="#mcb37852233" y="323.654118"/>
      </g>
     </g>
     <g id="text_4">
      <!-- 6 -->
      <defs>
       <path d="M 33.015625 40.375 
Q 26.375 40.375 22.484375 35.828125 
Q 18.609375 31.296875 18.609375 23.390625 
Q 18.609375 15.53125 22.484375 10.953125 
Q 26.375 6.390625 33.015625 6.390625 
Q 39.65625 6.390625 43.53125 10.953125 
Q 47.40625 15.53125 47.40625 23.390625 
Q 47.40625 31.296875 43.53125 35.828125 
Q 39.65625 40.375 33.015625 40.375 
M 52.59375 71.296875 
L 52.59375 62.3125 
Q 48.875 64.0625 45.09375 64.984375 
Q 41.3125 65.921875 37.59375 65.921875 
Q 27.828125 65.921875 22.671875 59.328125 
Q 17.53125 52.734375 16.796875 39.40625 
Q 19.671875 43.65625 24.015625 45.921875 
Q 28.375 48.1875 33.59375 48.1875 
Q 44.578125 48.1875 50.953125 41.515625 
Q 57.328125 34.859375 57.328125 23.390625 
Q 57.328125 12.15625 50.6875 5.359375 
Q 44.046875 -1.421875 33.015625 -1.421875 
Q 20.359375 -1.421875 13.671875 8.265625 
Q 6.984375 17.96875 6.984375 36.375 
Q 6.984375 53.65625 15.1875 63.9375 
Q 23.390625 74.21875 37.203125 74.21875 
Q 40.921875 74.21875 44.703125 73.484375 
Q 48.484375 72.75 52.59375 71.296875 
" id="DejaVuSans-36"/>
      </defs>
      <g transform="translate(299.35475 338.252555)scale(0.1 -0.1)">
       <use xlink:href="#DejaVuSans-36"/>
      </g>
     </g>
    </g>
    <g id="xtick_5">
     <g id="line2d_5">
      <g>
       <use style="stroke:#000000;stroke-width:0.8;" x="389.101333" xlink:href="#mcb37852233" y="323.654118"/>
      </g>
     </g>
     <g id="text_5">
      <!-- 8 -->
      <defs>
       <path d="M 31.78125 34.625 
Q 24.75 34.625 20.71875 30.859375 
Q 16.703125 27.09375 16.703125 20.515625 
Q 16.703125 13.921875 20.71875 10.15625 
Q 24.75 6.390625 31.78125 6.390625 
Q 38.8125 6.390625 42.859375 10.171875 
Q 46.921875 13.96875 46.921875 20.515625 
Q 46.921875 27.09375 42.890625 30.859375 
Q 38.875 34.625 31.78125 34.625 
M 21.921875 38.8125 
Q 15.578125 40.375 12.03125 44.71875 
Q 8.5 49.078125 8.5 55.328125 
Q 8.5 64.0625 14.71875 69.140625 
Q 20.953125 74.21875 31.78125 74.21875 
Q 42.671875 74.21875 48.875 69.140625 
Q 55.078125 64.0625 55.078125 55.328125 
Q 55.078125 49.078125 51.53125 44.71875 
Q 48 40.375 41.703125 38.8125 
Q 48.828125 37.15625 52.796875 32.3125 
Q 56.78125 27.484375 56.78125 20.515625 
Q 56.78125 9.90625 50.3125 4.234375 
Q 43.84375 -1.421875 31.78125 -1.421875 
Q 19.734375 -1.421875 13.25 4.234375 
Q 6.78125 9.90625 6.78125 20.515625 
Q 6.78125 27.484375 10.78125 32.3125 
Q 14.796875 37.15625 21.921875 38.8125 
M 18.3125 54.390625 
Q 18.3125 48.734375 21.84375 45.5625 
Q 25.390625 42.390625 31.78125 42.390625 
Q 38.140625 42.390625 41.71875 45.5625 
Q 45.3125 48.734375 45.3125 54.390625 
Q 45.3125 60.0625 41.71875 63.234375 
Q 38.140625 66.40625 31.78125 66.40625 
Q 25.390625 66.40625 21.84375 63.234375 
Q 18.3125 60.0625 18.3125 54.390625 
" id="DejaVuSans-38"/>
      </defs>
      <g transform="translate(385.920083 338.252555)scale(0.1 -0.1)">
       <use xlink:href="#DejaVuSans-38"/>
      </g>
     </g>
    </g>
    <g id="xtick_6">
     <g id="line2d_6">
      <g>
       <use style="stroke:#000000;stroke-width:0.8;" x="475.666667" xlink:href="#mcb37852233" y="323.654118"/>
      </g>
     </g>
     <g id="text_6">
      <!-- 10 -->
      <defs>
       <path d="M 12.40625 8.296875 
L 28.515625 8.296875 
L 28.515625 63.921875 
L 10.984375 60.40625 
L 10.984375 69.390625 
L 28.421875 72.90625 
L 38.28125 72.90625 
L 38.28125 8.296875 
L 54.390625 8.296875 
L 54.390625 0 
L 12.40625 0 
z
" id="DejaVuSans-31"/>
      </defs>
      <g transform="translate(469.304167 338.252555)scale(0.1 -0.1)">
       <use xlink:href="#DejaVuSans-31"/>
       <use x="63.623047" xlink:href="#DejaVuSans-30"/>
      </g>
     </g>
    </g>
    <g id="xtick_7">
     <g id="line2d_7">
      <g>
       <use style="stroke:#000000;stroke-width:0.8;" x="562.232" xlink:href="#mcb37852233" y="323.654118"/>
      </g>
     </g>
     <g id="text_7">
      <!-- 12 -->
      <g transform="translate(555.8695 338.252555)scale(0.1 -0.1)">
       <use xlink:href="#DejaVuSans-31"/>
       <use x="63.623047" xlink:href="#DejaVuSans-32"/>
      </g>
     </g>
    </g>
    <g id="xtick_8">
     <g id="line2d_8">
      <g>
       <use style="stroke:#000000;stroke-width:0.8;" x="648.797333" xlink:href="#mcb37852233" y="323.654118"/>
      </g>
     </g>
     <g id="text_8">
      <!-- 14 -->
      <g transform="translate(642.434833 338.252555)scale(0.1 -0.1)">
       <use xlink:href="#DejaVuSans-31"/>
       <use x="63.623047" xlink:href="#DejaVuSans-34"/>
      </g>
     </g>
    </g>
   </g>
   <g id="matplotlib.axis_2">
    <g id="ytick_1">
     <g id="line2d_9">
      <defs>
       <path d="M 0 0 
L -3.5 0 
" id="m80712807b8" style="stroke:#000000;stroke-width:0.8;"/>
      </defs>
      <g>
       <use style="stroke:#000000;stroke-width:0.8;" x="42.84" xlink:href="#m80712807b8" y="323.654118"/>
      </g>
     </g>
     <g id="text_9">
      <!-- 0.00 -->
      <defs>
       <path d="M 10.6875 12.40625 
L 21 12.40625 
L 21 0 
L 10.6875 0 
z
" id="DejaVuSans-2e"/>
      </defs>
      <g transform="translate(13.574375 327.453336)scale(0.1 -0.1)">
       <use xlink:href="#DejaVuSans-30"/>
       <use x="63.623047" xlink:href="#DejaVuSans-2e"/>
       <use x="95.410156" xlink:href="#DejaVuSans-30"/>
       <use x="159.033203" xlink:href="#DejaVuSans-30"/>
      </g>
     </g>
    </g>
    <g id="ytick_2">
     <g id="line2d_10">
      <g>
       <use style="stroke:#000000;stroke-width:0.8;" x="42.84" xlink:href="#m80712807b8" y="273.705098"/>
      </g>
     </g>
     <g id="text_10">
      <!-- 0.05 -->
      <defs>
       <path d="M 10.796875 72.90625 
L 49.515625 72.90625 
L 49.515625 64.59375 
L 19.828125 64.59375 
L 19.828125 46.734375 
Q 21.96875 47.46875 24.109375 47.828125 
Q 26.265625 48.1875 28.421875 48.1875 
Q 40.625 48.1875 47.75 41.5 
Q 54.890625 34.8125 54.890625 23.390625 
Q 54.890625 11.625 47.5625 5.09375 
Q 40.234375 -1.421875 26.90625 -1.421875 
Q 22.3125 -1.421875 17.546875 -0.640625 
Q 12.796875 0.140625 7.71875 1.703125 
L 7.71875 11.625 
Q 12.109375 9.234375 16.796875 8.0625 
Q 21.484375 6.890625 26.703125 6.890625 
Q 35.15625 6.890625 40.078125 11.328125 
Q 45.015625 15.765625 45.015625 23.390625 
Q 45.015625 31 40.078125 35.4375 
Q 35.15625 39.890625 26.703125 39.890625 
Q 22.75 39.890625 18.8125 39.015625 
Q 14.890625 38.140625 10.796875 36.28125 
z
" id="DejaVuSans-35"/>
      </defs>
      <g transform="translate(13.574375 277.504317)scale(0.1 -0.1)">
       <use xlink:href="#DejaVuSans-30"/>
       <use x="63.623047" xlink:href="#DejaVuSans-2e"/>
       <use x="95.410156" xlink:href="#DejaVuSans-30"/>
       <use x="159.033203" xlink:href="#DejaVuSans-35"/>
      </g>
     </g>
    </g>
    <g id="ytick_3">
     <g id="line2d_11">
      <g>
       <use style="stroke:#000000;stroke-width:0.8;" x="42.84" xlink:href="#m80712807b8" y="223.756078"/>
      </g>
     </g>
     <g id="text_11">
      <!-- 0.10 -->
      <g transform="translate(13.574375 227.555297)scale(0.1 -0.1)">
       <use xlink:href="#DejaVuSans-30"/>
       <use x="63.623047" xlink:href="#DejaVuSans-2e"/>
       <use x="95.410156" xlink:href="#DejaVuSans-31"/>
       <use x="159.033203" xlink:href="#DejaVuSans-30"/>
      </g>
     </g>
    </g>
    <g id="ytick_4">
     <g id="line2d_12">
      <g>
       <use style="stroke:#000000;stroke-width:0.8;" x="42.84" xlink:href="#m80712807b8" y="173.807059"/>
      </g>
     </g>
     <g id="text_12">
      <!-- 0.15 -->
      <g transform="translate(13.574375 177.606278)scale(0.1 -0.1)">
       <use xlink:href="#DejaVuSans-30"/>
       <use x="63.623047" xlink:href="#DejaVuSans-2e"/>
       <use x="95.410156" xlink:href="#DejaVuSans-31"/>
       <use x="159.033203" xlink:href="#DejaVuSans-35"/>
      </g>
     </g>
    </g>
    <g id="ytick_5">
     <g id="line2d_13">
      <g>
       <use style="stroke:#000000;stroke-width:0.8;" x="42.84" xlink:href="#m80712807b8" y="123.858039"/>
      </g>
     </g>
     <g id="text_13">
      <!-- 0.20 -->
      <g transform="translate(13.574375 127.657258)scale(0.1 -0.1)">
       <use xlink:href="#DejaVuSans-30"/>
       <use x="63.623047" xlink:href="#DejaVuSans-2e"/>
       <use x="95.410156" xlink:href="#DejaVuSans-32"/>
       <use x="159.033203" xlink:href="#DejaVuSans-30"/>
      </g>
     </g>
    </g>
    <g id="ytick_6">
     <g id="line2d_14">
      <g>
       <use style="stroke:#000000;stroke-width:0.8;" x="42.84" xlink:href="#m80712807b8" y="73.90902"/>
      </g>
     </g>
     <g id="text_14">
      <!-- 0.25 -->
      <g transform="translate(13.574375 77.708238)scale(0.1 -0.1)">
       <use xlink:href="#DejaVuSans-30"/>
       <use x="63.623047" xlink:href="#DejaVuSans-2e"/>
       <use x="95.410156" xlink:href="#DejaVuSans-32"/>
       <use x="159.033203" xlink:href="#DejaVuSans-35"/>
      </g>
     </g>
    </g>
    <g id="ytick_7">
     <g id="line2d_15">
      <g>
       <use style="stroke:#000000;stroke-width:0.8;" x="42.84" xlink:href="#m80712807b8" y="23.96"/>
      </g>
     </g>
     <g id="text_15">
      <!-- 0.30 -->
      <defs>
       <path d="M 40.578125 39.3125 
Q 47.65625 37.796875 51.625 33 
Q 55.609375 28.21875 55.609375 21.1875 
Q 55.609375 10.40625 48.1875 4.484375 
Q 40.765625 -1.421875 27.09375 -1.421875 
Q 22.515625 -1.421875 17.65625 -0.515625 
Q 12.796875 0.390625 7.625 2.203125 
L 7.625 11.71875 
Q 11.71875 9.328125 16.59375 8.109375 
Q 21.484375 6.890625 26.8125 6.890625 
Q 36.078125 6.890625 40.9375 10.546875 
Q 45.796875 14.203125 45.796875 21.1875 
Q 45.796875 27.640625 41.28125 31.265625 
Q 36.765625 34.90625 28.71875 34.90625 
L 20.21875 34.90625 
L 20.21875 43.015625 
L 29.109375 43.015625 
Q 36.375 43.015625 40.234375 45.921875 
Q 44.09375 48.828125 44.09375 54.296875 
Q 44.09375 59.90625 40.109375 62.90625 
Q 36.140625 65.921875 28.71875 65.921875 
Q 24.65625 65.921875 20.015625 65.03125 
Q 15.375 64.15625 9.8125 62.3125 
L 9.8125 71.09375 
Q 15.4375 72.65625 20.34375 73.4375 
Q 25.25 74.21875 29.59375 74.21875 
Q 40.828125 74.21875 47.359375 69.109375 
Q 53.90625 64.015625 53.90625 55.328125 
Q 53.90625 49.265625 50.4375 45.09375 
Q 46.96875 40.921875 40.578125 39.3125 
" id="DejaVuSans-33"/>
      </defs>
      <g transform="translate(13.574375 27.759219)scale(0.1 -0.1)">
       <use xlink:href="#DejaVuSans-30"/>
       <use x="63.623047" xlink:href="#DejaVuSans-2e"/>
       <use x="95.410156" xlink:href="#DejaVuSans-33"/>
       <use x="159.033203" xlink:href="#DejaVuSans-30"/>
      </g>
     </g>
    </g>
   </g>
   <g id="patch_21">
    <path d="M 42.84 323.654118 
L 42.84 23.96 
" style="fill:none;stroke:#000000;stroke-linecap:square;stroke-linejoin:miter;stroke-width:0.8;"/>
   </g>
   <g id="patch_22">
    <path d="M 692.08 323.654118 
L 692.08 23.96 
" style="fill:none;stroke:#000000;stroke-linecap:square;stroke-linejoin:miter;stroke-width:0.8;"/>
   </g>
   <g id="patch_23">
    <path d="M 42.84 323.654118 
L 692.08 323.654118 
" style="fill:none;stroke:#000000;stroke-linecap:square;stroke-linejoin:miter;stroke-width:0.8;"/>
   </g>
   <g id="patch_24">
    <path d="M 42.84 23.96 
L 692.08 23.96 
" style="fill:none;stroke:#000000;stroke-linecap:square;stroke-linejoin:miter;stroke-width:0.8;"/>
   </g>
   <g id="text_16">
    <!-- Queue Size (Normalized) (TQ = 3, $\lambda=1/8$, jobs= 1000) -->
    <defs>
     <path d="M 39.40625 66.21875 
Q 28.65625 66.21875 22.328125 58.203125 
Q 16.015625 50.203125 16.015625 36.375 
Q 16.015625 22.609375 22.328125 14.59375 
Q 28.65625 6.59375 39.40625 6.59375 
Q 50.140625 6.59375 56.421875 14.59375 
Q 62.703125 22.609375 62.703125 36.375 
Q 62.703125 50.203125 56.421875 58.203125 
Q 50.140625 66.21875 39.40625 66.21875 
M 53.21875 1.3125 
L 66.21875 -12.890625 
L 54.296875 -12.890625 
L 43.5 -1.21875 
Q 41.890625 -1.3125 41.03125 -1.359375 
Q 40.1875 -1.421875 39.40625 -1.421875 
Q 24.03125 -1.421875 14.8125 8.859375 
Q 5.609375 19.140625 5.609375 36.375 
Q 5.609375 53.65625 14.8125 63.9375 
Q 24.03125 74.21875 39.40625 74.21875 
Q 54.734375 74.21875 63.90625 63.9375 
Q 73.09375 53.65625 73.09375 36.375 
Q 73.09375 23.6875 67.984375 14.640625 
Q 62.890625 5.609375 53.21875 1.3125 
" id="DejaVuSans-51"/>
     <path d="M 8.5 21.578125 
L 8.5 54.6875 
L 17.484375 54.6875 
L 17.484375 21.921875 
Q 17.484375 14.15625 20.5 10.265625 
Q 23.53125 6.390625 29.59375 6.390625 
Q 36.859375 6.390625 41.078125 11.03125 
Q 45.3125 15.671875 45.3125 23.6875 
L 45.3125 54.6875 
L 54.296875 54.6875 
L 54.296875 0 
L 45.3125 0 
L 45.3125 8.40625 
Q 42.046875 3.421875 37.71875 1 
Q 33.40625 -1.421875 27.6875 -1.421875 
Q 18.265625 -1.421875 13.375 4.4375 
Q 8.5 10.296875 8.5 21.578125 
M 31.109375 56 
z
" id="DejaVuSans-75"/>
     <path d="M 56.203125 29.59375 
L 56.203125 25.203125 
L 14.890625 25.203125 
Q 15.484375 15.921875 20.484375 11.0625 
Q 25.484375 6.203125 34.421875 6.203125 
Q 39.59375 6.203125 44.453125 7.46875 
Q 49.3125 8.734375 54.109375 11.28125 
L 54.109375 2.78125 
Q 49.265625 0.734375 44.1875 -0.34375 
Q 39.109375 -1.421875 33.890625 -1.421875 
Q 20.796875 -1.421875 13.15625 6.1875 
Q 5.515625 13.8125 5.515625 26.8125 
Q 5.515625 40.234375 12.765625 48.109375 
Q 20.015625 56 32.328125 56 
Q 43.359375 56 49.78125 48.890625 
Q 56.203125 41.796875 56.203125 29.59375 
M 47.21875 32.234375 
Q 47.125 39.59375 43.09375 43.984375 
Q 39.0625 48.390625 32.421875 48.390625 
Q 24.90625 48.390625 20.390625 44.140625 
Q 15.875 39.890625 15.1875 32.171875 
z
" id="DejaVuSans-65"/>
     <path id="DejaVuSans-20"/>
     <path d="M 53.515625 70.515625 
L 53.515625 60.890625 
Q 47.90625 63.578125 42.921875 64.890625 
Q 37.9375 66.21875 33.296875 66.21875 
Q 25.25 66.21875 20.875 63.09375 
Q 16.5 59.96875 16.5 54.203125 
Q 16.5 49.359375 19.40625 46.890625 
Q 22.3125 44.4375 30.421875 42.921875 
L 36.375 41.703125 
Q 47.40625 39.59375 52.65625 34.296875 
Q 57.90625 29 57.90625 20.125 
Q 57.90625 9.515625 50.796875 4.046875 
Q 43.703125 -1.421875 29.984375 -1.421875 
Q 24.8125 -1.421875 18.96875 -0.25 
Q 13.140625 0.921875 6.890625 3.21875 
L 6.890625 13.375 
Q 12.890625 10.015625 18.65625 8.296875 
Q 24.421875 6.59375 29.984375 6.59375 
Q 38.421875 6.59375 43.015625 9.90625 
Q 47.609375 13.234375 47.609375 19.390625 
Q 47.609375 24.75 44.3125 27.78125 
Q 41.015625 30.8125 33.5 32.328125 
L 27.484375 33.5 
Q 16.453125 35.6875 11.515625 40.375 
Q 6.59375 45.0625 6.59375 53.421875 
Q 6.59375 63.09375 13.40625 68.65625 
Q 20.21875 74.21875 32.171875 74.21875 
Q 37.3125 74.21875 42.625 73.28125 
Q 47.953125 72.359375 53.515625 70.515625 
" id="DejaVuSans-53"/>
     <path d="M 9.421875 54.6875 
L 18.40625 54.6875 
L 18.40625 0 
L 9.421875 0 
z
M 9.421875 75.984375 
L 18.40625 75.984375 
L 18.40625 64.59375 
L 9.421875 64.59375 
z
" id="DejaVuSans-69"/>
     <path d="M 5.515625 54.6875 
L 48.1875 54.6875 
L 48.1875 46.484375 
L 14.40625 7.171875 
L 48.1875 7.171875 
L 48.1875 0 
L 4.296875 0 
L 4.296875 8.203125 
L 38.09375 47.515625 
L 5.515625 47.515625 
z
" id="DejaVuSans-7a"/>
     <path d="M 31 75.875 
Q 24.46875 64.65625 21.28125 53.65625 
Q 18.109375 42.671875 18.109375 31.390625 
Q 18.109375 20.125 21.3125 9.0625 
Q 24.515625 -2 31 -13.1875 
L 23.1875 -13.1875 
Q 15.875 -1.703125 12.234375 9.375 
Q 8.59375 20.453125 8.59375 31.390625 
Q 8.59375 42.28125 12.203125 53.3125 
Q 15.828125 64.359375 23.1875 75.875 
z
" id="DejaVuSans-28"/>
     <path d="M 9.8125 72.90625 
L 23.09375 72.90625 
L 55.421875 11.921875 
L 55.421875 72.90625 
L 64.984375 72.90625 
L 64.984375 0 
L 51.703125 0 
L 19.390625 60.984375 
L 19.390625 0 
L 9.8125 0 
z
" id="DejaVuSans-4e"/>
     <path d="M 30.609375 48.390625 
Q 23.390625 48.390625 19.1875 42.75 
Q 14.984375 37.109375 14.984375 27.296875 
Q 14.984375 17.484375 19.15625 11.84375 
Q 23.34375 6.203125 30.609375 6.203125 
Q 37.796875 6.203125 41.984375 11.859375 
Q 46.1875 17.53125 46.1875 27.296875 
Q 46.1875 37.015625 41.984375 42.703125 
Q 37.796875 48.390625 30.609375 48.390625 
M 30.609375 56 
Q 42.328125 56 49.015625 48.375 
Q 55.71875 40.765625 55.71875 27.296875 
Q 55.71875 13.875 49.015625 6.21875 
Q 42.328125 -1.421875 30.609375 -1.421875 
Q 18.84375 -1.421875 12.171875 6.21875 
Q 5.515625 13.875 5.515625 27.296875 
Q 5.515625 40.765625 12.171875 48.375 
Q 18.84375 56 30.609375 56 
" id="DejaVuSans-6f"/>
     <path d="M 41.109375 46.296875 
Q 39.59375 47.171875 37.8125 47.578125 
Q 36.03125 48 33.890625 48 
Q 26.265625 48 22.1875 43.046875 
Q 18.109375 38.09375 18.109375 28.8125 
L 18.109375 0 
L 9.078125 0 
L 9.078125 54.6875 
L 18.109375 54.6875 
L 18.109375 46.1875 
Q 20.953125 51.171875 25.484375 53.578125 
Q 30.03125 56 36.53125 56 
Q 37.453125 56 38.578125 55.875 
Q 39.703125 55.765625 41.0625 55.515625 
z
" id="DejaVuSans-72"/>
     <path d="M 52 44.1875 
Q 55.375 50.25 60.0625 53.125 
Q 64.75 56 71.09375 56 
Q 79.640625 56 84.28125 50.015625 
Q 88.921875 44.046875 88.921875 33.015625 
L 88.921875 0 
L 79.890625 0 
L 79.890625 32.71875 
Q 79.890625 40.578125 77.09375 44.375 
Q 74.3125 48.1875 68.609375 48.1875 
Q 61.625 48.1875 57.5625 43.546875 
Q 53.515625 38.921875 53.515625 30.90625 
L 53.515625 0 
L 44.484375 0 
L 44.484375 32.71875 
Q 44.484375 40.625 41.703125 44.40625 
Q 38.921875 48.1875 33.109375 48.1875 
Q 26.21875 48.1875 22.15625 43.53125 
Q 18.109375 38.875 18.109375 30.90625 
L 18.109375 0 
L 9.078125 0 
L 9.078125 54.6875 
L 18.109375 54.6875 
L 18.109375 46.1875 
Q 21.1875 51.21875 25.484375 53.609375 
Q 29.78125 56 35.6875 56 
Q 41.65625 56 45.828125 52.96875 
Q 50 49.953125 52 44.1875 
" id="DejaVuSans-6d"/>
     <path d="M 34.28125 27.484375 
Q 23.390625 27.484375 19.1875 25 
Q 14.984375 22.515625 14.984375 16.5 
Q 14.984375 11.71875 18.140625 8.90625 
Q 21.296875 6.109375 26.703125 6.109375 
Q 34.1875 6.109375 38.703125 11.40625 
Q 43.21875 16.703125 43.21875 25.484375 
L 43.21875 27.484375 
z
M 52.203125 31.203125 
L 52.203125 0 
L 43.21875 0 
L 43.21875 8.296875 
Q 40.140625 3.328125 35.546875 0.953125 
Q 30.953125 -1.421875 24.3125 -1.421875 
Q 15.921875 -1.421875 10.953125 3.296875 
Q 6 8.015625 6 15.921875 
Q 6 25.140625 12.171875 29.828125 
Q 18.359375 34.515625 30.609375 34.515625 
L 43.21875 34.515625 
L 43.21875 35.40625 
Q 43.21875 41.609375 39.140625 45 
Q 35.0625 48.390625 27.6875 48.390625 
Q 23 48.390625 18.546875 47.265625 
Q 14.109375 46.140625 10.015625 43.890625 
L 10.015625 52.203125 
Q 14.9375 54.109375 19.578125 55.046875 
Q 24.21875 56 28.609375 56 
Q 40.484375 56 46.34375 49.84375 
Q 52.203125 43.703125 52.203125 31.203125 
" id="DejaVuSans-61"/>
     <path d="M 9.421875 75.984375 
L 18.40625 75.984375 
L 18.40625 0 
L 9.421875 0 
z
" id="DejaVuSans-6c"/>
     <path d="M 45.40625 46.390625 
L 45.40625 75.984375 
L 54.390625 75.984375 
L 54.390625 0 
L 45.40625 0 
L 45.40625 8.203125 
Q 42.578125 3.328125 38.25 0.953125 
Q 33.9375 -1.421875 27.875 -1.421875 
Q 17.96875 -1.421875 11.734375 6.484375 
Q 5.515625 14.40625 5.515625 27.296875 
Q 5.515625 40.1875 11.734375 48.09375 
Q 17.96875 56 27.875 56 
Q 33.9375 56 38.25 53.625 
Q 42.578125 51.265625 45.40625 46.390625 
M 14.796875 27.296875 
Q 14.796875 17.390625 18.875 11.75 
Q 22.953125 6.109375 30.078125 6.109375 
Q 37.203125 6.109375 41.296875 11.75 
Q 45.40625 17.390625 45.40625 27.296875 
Q 45.40625 37.203125 41.296875 42.84375 
Q 37.203125 48.484375 30.078125 48.484375 
Q 22.953125 48.484375 18.875 42.84375 
Q 14.796875 37.203125 14.796875 27.296875 
" id="DejaVuSans-64"/>
     <path d="M 8.015625 75.875 
L 15.828125 75.875 
Q 23.140625 64.359375 26.78125 53.3125 
Q 30.421875 42.28125 30.421875 31.390625 
Q 30.421875 20.453125 26.78125 9.375 
Q 23.140625 -1.703125 15.828125 -13.1875 
L 8.015625 -13.1875 
Q 14.5 -2 17.703125 9.0625 
Q 20.90625 20.125 20.90625 31.390625 
Q 20.90625 42.671875 17.703125 53.65625 
Q 14.5 64.65625 8.015625 75.875 
" id="DejaVuSans-29"/>
     <path d="M -0.296875 72.90625 
L 61.375 72.90625 
L 61.375 64.59375 
L 35.5 64.59375 
L 35.5 0 
L 25.59375 0 
L 25.59375 64.59375 
L -0.296875 64.59375 
z
" id="DejaVuSans-54"/>
     <path d="M 10.59375 45.40625 
L 73.1875 45.40625 
L 73.1875 37.203125 
L 10.59375 37.203125 
z
M 10.59375 25.484375 
L 73.1875 25.484375 
L 73.1875 17.1875 
L 10.59375 17.1875 
z
" id="DejaVuSans-3d"/>
     <path d="M 11.71875 12.40625 
L 22.015625 12.40625 
L 22.015625 4 
L 14.015625 -11.625 
L 7.71875 -11.625 
L 11.71875 4 
z
" id="DejaVuSans-2c"/>
     <path d="M 36.71875 67.4375 
L 48.828125 0 
L 39.3125 0 
L 31.84375 40.4375 
L 5.125 0 
L -4.390625 0 
L 29.734375 52.4375 
L 28.03125 62.109375 
Q 26.953125 68.265625 21.734375 68.265625 
L 17.046875 68.265625 
L 18.5 75.984375 
L 24.21875 75.875 
Q 35.203125 75.734375 36.71875 67.4375 
" id="DejaVuSans-Oblique-3bb"/>
     <path d="M 25.390625 72.90625 
L 33.6875 72.90625 
L 8.296875 -9.28125 
L 0 -9.28125 
z
" id="DejaVuSans-2f"/>
     <path d="M 9.421875 54.6875 
L 18.40625 54.6875 
L 18.40625 -0.984375 
Q 18.40625 -11.421875 14.421875 -16.109375 
Q 10.453125 -20.796875 1.609375 -20.796875 
L -1.8125 -20.796875 
L -1.8125 -13.1875 
L 0.59375 -13.1875 
Q 5.71875 -13.1875 7.5625 -10.8125 
Q 9.421875 -8.453125 9.421875 -0.984375 
z
M 9.421875 75.984375 
L 18.40625 75.984375 
L 18.40625 64.59375 
L 9.421875 64.59375 
z
" id="DejaVuSans-6a"/>
     <path d="M 48.6875 27.296875 
Q 48.6875 37.203125 44.609375 42.84375 
Q 40.53125 48.484375 33.40625 48.484375 
Q 26.265625 48.484375 22.1875 42.84375 
Q 18.109375 37.203125 18.109375 27.296875 
Q 18.109375 17.390625 22.1875 11.75 
Q 26.265625 6.109375 33.40625 6.109375 
Q 40.53125 6.109375 44.609375 11.75 
Q 48.6875 17.390625 48.6875 27.296875 
M 18.109375 46.390625 
Q 20.953125 51.265625 25.265625 53.625 
Q 29.59375 56 35.59375 56 
Q 45.5625 56 51.78125 48.09375 
Q 58.015625 40.1875 58.015625 27.296875 
Q 58.015625 14.40625 51.78125 6.484375 
Q 45.5625 -1.421875 35.59375 -1.421875 
Q 29.59375 -1.421875 25.265625 0.953125 
Q 20.953125 3.328125 18.109375 8.203125 
L 18.109375 0 
L 9.078125 0 
L 9.078125 75.984375 
L 18.109375 75.984375 
z
" id="DejaVuSans-62"/>
     <path d="M 44.28125 53.078125 
L 44.28125 44.578125 
Q 40.484375 46.53125 36.375 47.5 
Q 32.28125 48.484375 27.875 48.484375 
Q 21.1875 48.484375 17.84375 46.4375 
Q 14.5 44.390625 14.5 40.28125 
Q 14.5 37.15625 16.890625 35.375 
Q 19.28125 33.59375 26.515625 31.984375 
L 29.59375 31.296875 
Q 39.15625 29.25 43.1875 25.515625 
Q 47.21875 21.78125 47.21875 15.09375 
Q 47.21875 7.46875 41.1875 3.015625 
Q 35.15625 -1.421875 24.609375 -1.421875 
Q 20.21875 -1.421875 15.453125 -0.5625 
Q 10.6875 0.296875 5.421875 2 
L 5.421875 11.28125 
Q 10.40625 8.6875 15.234375 7.390625 
Q 20.0625 6.109375 24.8125 6.109375 
Q 31.15625 6.109375 34.5625 8.28125 
Q 37.984375 10.453125 37.984375 14.40625 
Q 37.984375 18.0625 35.515625 20.015625 
Q 33.0625 21.96875 24.703125 23.78125 
L 21.578125 24.515625 
Q 13.234375 26.265625 9.515625 29.90625 
Q 5.8125 33.546875 5.8125 39.890625 
Q 5.8125 47.609375 11.28125 51.796875 
Q 16.75 56 26.8125 56 
Q 31.78125 56 36.171875 55.265625 
Q 40.578125 54.546875 44.28125 53.078125 
" id="DejaVuSans-73"/>
    </defs>
    <g transform="translate(202.46 17.96)scale(0.12 -0.12)">
     <use transform="translate(0 0.015625)" xlink:href="#DejaVuSans-51"/>
     <use transform="translate(78.710938 0.015625)" xlink:href="#DejaVuSans-75"/>
     <use transform="translate(142.089844 0.015625)" xlink:href="#DejaVuSans-65"/>
     <use transform="translate(203.613281 0.015625)" xlink:href="#DejaVuSans-75"/>
     <use transform="translate(266.992188 0.015625)" xlink:href="#DejaVuSans-65"/>
     <use transform="translate(328.515625 0.015625)" xlink:href="#DejaVuSans-20"/>
     <use transform="translate(360.302734 0.015625)" xlink:href="#DejaVuSans-53"/>
     <use transform="translate(423.779297 0.015625)" xlink:href="#DejaVuSans-69"/>
     <use transform="translate(451.5625 0.015625)" xlink:href="#DejaVuSans-7a"/>
     <use transform="translate(504.052734 0.015625)" xlink:href="#DejaVuSans-65"/>
     <use transform="translate(565.576172 0.015625)" xlink:href="#DejaVuSans-20"/>
     <use transform="translate(597.363281 0.015625)" xlink:href="#DejaVuSans-28"/>
     <use transform="translate(636.376953 0.015625)" xlink:href="#DejaVuSans-4e"/>
     <use transform="translate(711.181641 0.015625)" xlink:href="#DejaVuSans-6f"/>
     <use transform="translate(772.363281 0.015625)" xlink:href="#DejaVuSans-72"/>
     <use transform="translate(813.476562 0.015625)" xlink:href="#DejaVuSans-6d"/>
     <use transform="translate(910.888672 0.015625)" xlink:href="#DejaVuSans-61"/>
     <use transform="translate(972.167969 0.015625)" xlink:href="#DejaVuSans-6c"/>
     <use transform="translate(999.951172 0.015625)" xlink:href="#DejaVuSans-69"/>
     <use transform="translate(1027.734375 0.015625)" xlink:href="#DejaVuSans-7a"/>
     <use transform="translate(1080.224609 0.015625)" xlink:href="#DejaVuSans-65"/>
     <use transform="translate(1141.748047 0.015625)" xlink:href="#DejaVuSans-64"/>
     <use transform="translate(1205.224609 0.015625)" xlink:href="#DejaVuSans-29"/>
     <use transform="translate(1244.238281 0.015625)" xlink:href="#DejaVuSans-20"/>
     <use transform="translate(1276.025391 0.015625)" xlink:href="#DejaVuSans-28"/>
     <use transform="translate(1315.039062 0.015625)" xlink:href="#DejaVuSans-54"/>
     <use transform="translate(1376.123047 0.015625)" xlink:href="#DejaVuSans-51"/>
     <use transform="translate(1454.833984 0.015625)" xlink:href="#DejaVuSans-20"/>
     <use transform="translate(1486.621094 0.015625)" xlink:href="#DejaVuSans-3d"/>
     <use transform="translate(1570.410156 0.015625)" xlink:href="#DejaVuSans-20"/>
     <use transform="translate(1602.197266 0.015625)" xlink:href="#DejaVuSans-33"/>
     <use transform="translate(1665.820312 0.015625)" xlink:href="#DejaVuSans-2c"/>
     <use transform="translate(1697.607422 0.015625)" xlink:href="#DejaVuSans-20"/>
     <use transform="translate(1729.394531 0.015625)" xlink:href="#DejaVuSans-Oblique-3bb"/>
     <use transform="translate(1808.056641 0.015625)" xlink:href="#DejaVuSans-3d"/>
     <use transform="translate(1911.328125 0.015625)" xlink:href="#DejaVuSans-31"/>
     <use transform="translate(1974.951172 0.015625)" xlink:href="#DejaVuSans-2f"/>
     <use transform="translate(2008.564453 0.015625)" xlink:href="#DejaVuSans-38"/>
     <use transform="translate(2072.1875 0.015625)" xlink:href="#DejaVuSans-2c"/>
     <use transform="translate(2103.974609 0.015625)" xlink:href="#DejaVuSans-20"/>
     <use transform="translate(2135.761719 0.015625)" xlink:href="#DejaVuSans-6a"/>
     <use transform="translate(2163.544922 0.015625)" xlink:href="#DejaVuSans-6f"/>
     <use transform="translate(2224.726562 0.015625)" xlink:href="#DejaVuSans-62"/>
     <use transform="translate(2288.203125 0.015625)" xlink:href="#DejaVuSans-73"/>
     <use transform="translate(2340.302734 0.015625)" xlink:href="#DejaVuSans-3d"/>
     <use transform="translate(2424.091797 0.015625)" xlink:href="#DejaVuSans-20"/>
     <use transform="translate(2455.878906 0.015625)" xlink:href="#DejaVuSans-31"/>
     <use transform="translate(2519.501953 0.015625)" xlink:href="#DejaVuSans-30"/>
     <use transform="translate(2583.125 0.015625)" xlink:href="#DejaVuSans-30"/>
     <use transform="translate(2646.748047 0.015625)" xlink:href="#DejaVuSans-30"/>
     <use transform="translate(2710.371094 0.015625)" xlink:href="#DejaVuSans-29"/>
    </g>
   </g>
  </g>
  <g id="axes_2">
   <g id="patch_25">
    <path d="M 42.84 683.287059 
L 692.08 683.287059 
L 692.08 383.592941 
L 42.84 383.592941 
z
" style="fill:#ffffff;"/>
   </g>
   <g id="patch_26">
    <path clip-path="url(#p0ebe864552)" d="M 68.8096 683.287059 
L 94.470038 683.287059 
L 94.470038 526.247341 
L 68.8096 526.247341 
z
" style="fill:#1f77b4;"/>
   </g>
   <g id="patch_27">
    <path clip-path="url(#p0ebe864552)" d="M 94.470038 683.287059 
L 120.130476 683.287059 
L 120.130476 504.669365 
L 94.470038 504.669365 
z
" style="fill:#1f77b4;"/>
   </g>
   <g id="patch_28">
    <path clip-path="url(#p0ebe864552)" d="M 120.130476 683.287059 
L 145.790914 683.287059 
L 145.790914 525.048565 
L 120.130476 525.048565 
z
" style="fill:#1f77b4;"/>
   </g>
   <g id="patch_29">
    <path clip-path="url(#p0ebe864552)" d="M 145.790914 683.287059 
L 171.451352 683.287059 
L 171.451352 555.017976 
L 145.790914 555.017976 
z
" style="fill:#1f77b4;"/>
   </g>
   <g id="patch_30">
    <path clip-path="url(#p0ebe864552)" d="M 171.451352 683.287059 
L 197.11179 683.287059 
L 197.11179 584.987388 
L 171.451352 584.987388 
z
" style="fill:#1f77b4;"/>
   </g>
   <g id="patch_31">
    <path clip-path="url(#p0ebe864552)" d="M 197.11179 683.287059 
L 222.772229 683.287059 
L 222.772229 574.1984 
L 197.11179 574.1984 
z
" style="fill:#1f77b4;"/>
   </g>
   <g id="patch_32">
    <path clip-path="url(#p0ebe864552)" d="M 222.772229 683.287059 
L 248.432667 683.287059 
L 248.432667 605.366588 
L 222.772229 605.366588 
z
" style="fill:#1f77b4;"/>
   </g>
   <g id="patch_33">
    <path clip-path="url(#p0ebe864552)" d="M 248.432667 683.287059 
L 274.093105 683.287059 
L 274.093105 623.348235 
L 248.432667 623.348235 
z
" style="fill:#1f77b4;"/>
   </g>
   <g id="patch_34">
    <path clip-path="url(#p0ebe864552)" d="M 274.093105 683.287059 
L 299.753543 683.287059 
L 299.753543 628.143341 
L 274.093105 628.143341 
z
" style="fill:#1f77b4;"/>
   </g>
   <g id="patch_35">
    <path clip-path="url(#p0ebe864552)" d="M 299.753543 683.287059 
L 325.413981 683.287059 
L 325.413981 640.131106 
L 299.753543 640.131106 
z
" style="fill:#1f77b4;"/>
   </g>
   <g id="patch_36">
    <path clip-path="url(#p0ebe864552)" d="M 325.413981 683.287059 
L 351.074419 683.287059 
L 351.074419 642.528659 
L 325.413981 642.528659 
z
" style="fill:#1f77b4;"/>
   </g>
   <g id="patch_37">
    <path clip-path="url(#p0ebe864552)" d="M 351.074419 683.287059 
L 376.734857 683.287059 
L 376.734857 662.907859 
L 351.074419 662.907859 
z
" style="fill:#1f77b4;"/>
   </g>
   <g id="patch_38">
    <path clip-path="url(#p0ebe864552)" d="M 376.734857 683.287059 
L 402.395295 683.287059 
L 402.395295 670.100518 
L 376.734857 670.100518 
z
" style="fill:#1f77b4;"/>
   </g>
   <g id="patch_39">
    <path clip-path="url(#p0ebe864552)" d="M 402.395295 683.287059 
L 428.055733 683.287059 
L 428.055733 660.510306 
L 402.395295 660.510306 
z
" style="fill:#1f77b4;"/>
   </g>
   <g id="patch_40">
    <path clip-path="url(#p0ebe864552)" d="M 428.055733 683.287059 
L 453.716171 683.287059 
L 453.716171 671.299294 
L 428.055733 671.299294 
z
" style="fill:#1f77b4;"/>
   </g>
   <g id="patch_41">
    <path clip-path="url(#p0ebe864552)" d="M 453.716171 683.287059 
L 479.37661 683.287059 
L 479.37661 674.895624 
L 453.716171 674.895624 
z
" style="fill:#1f77b4;"/>
   </g>
   <g id="patch_42">
    <path clip-path="url(#p0ebe864552)" d="M 479.37661 683.287059 
L 505.037048 683.287059 
L 505.037048 682.088282 
L 479.37661 682.088282 
z
" style="fill:#1f77b4;"/>
   </g>
   <g id="patch_43">
    <path clip-path="url(#p0ebe864552)" d="M 505.037048 683.287059 
L 530.697486 683.287059 
L 530.697486 677.293176 
L 505.037048 677.293176 
z
" style="fill:#1f77b4;"/>
   </g>
   <g id="patch_44">
    <path clip-path="url(#p0ebe864552)" d="M 530.697486 683.287059 
L 556.357924 683.287059 
L 556.357924 677.293176 
L 530.697486 677.293176 
z
" style="fill:#1f77b4;"/>
   </g>
   <g id="patch_45">
    <path clip-path="url(#p0ebe864552)" d="M 556.357924 683.287059 
L 582.018362 683.287059 
L 582.018362 683.287059 
L 556.357924 683.287059 
z
" style="fill:#1f77b4;"/>
   </g>
   <g id="patch_46">
    <path clip-path="url(#p0ebe864552)" d="M 582.018362 683.287059 
L 607.6788 683.287059 
L 607.6788 680.889506 
L 582.018362 680.889506 
z
" style="fill:#1f77b4;"/>
   </g>
   <g id="matplotlib.axis_3">
    <g id="xtick_9">
     <g id="line2d_16">
      <g>
       <use style="stroke:#000000;stroke-width:0.8;" x="42.84" xlink:href="#mcb37852233" y="683.287059"/>
      </g>
     </g>
     <g id="text_17">
      <!-- 0 -->
      <g transform="translate(39.65875 697.885496)scale(0.1 -0.1)">
       <use xlink:href="#DejaVuSans-30"/>
      </g>
     </g>
    </g>
    <g id="xtick_10">
     <g id="line2d_17">
      <g>
       <use style="stroke:#000000;stroke-width:0.8;" x="172.688" xlink:href="#mcb37852233" y="683.287059"/>
      </g>
     </g>
     <g id="text_18">
      <!-- 20 -->
      <g transform="translate(166.3255 697.885496)scale(0.1 -0.1)">
       <use xlink:href="#DejaVuSans-32"/>
       <use x="63.623047" xlink:href="#DejaVuSans-30"/>
      </g>
     </g>
    </g>
    <g id="xtick_11">
     <g id="line2d_18">
      <g>
       <use style="stroke:#000000;stroke-width:0.8;" x="302.536" xlink:href="#mcb37852233" y="683.287059"/>
      </g>
     </g>
     <g id="text_19">
      <!-- 40 -->
      <g transform="translate(296.1735 697.885496)scale(0.1 -0.1)">
       <use xlink:href="#DejaVuSans-34"/>
       <use x="63.623047" xlink:href="#DejaVuSans-30"/>
      </g>
     </g>
    </g>
    <g id="xtick_12">
     <g id="line2d_19">
      <g>
       <use style="stroke:#000000;stroke-width:0.8;" x="432.384" xlink:href="#mcb37852233" y="683.287059"/>
      </g>
     </g>
     <g id="text_20">
      <!-- 60 -->
      <g transform="translate(426.0215 697.885496)scale(0.1 -0.1)">
       <use xlink:href="#DejaVuSans-36"/>
       <use x="63.623047" xlink:href="#DejaVuSans-30"/>
      </g>
     </g>
    </g>
    <g id="xtick_13">
     <g id="line2d_20">
      <g>
       <use style="stroke:#000000;stroke-width:0.8;" x="562.232" xlink:href="#mcb37852233" y="683.287059"/>
      </g>
     </g>
     <g id="text_21">
      <!-- 80 -->
      <g transform="translate(555.8695 697.885496)scale(0.1 -0.1)">
       <use xlink:href="#DejaVuSans-38"/>
       <use x="63.623047" xlink:href="#DejaVuSans-30"/>
      </g>
     </g>
    </g>
    <g id="xtick_14">
     <g id="line2d_21">
      <g>
       <use style="stroke:#000000;stroke-width:0.8;" x="692.08" xlink:href="#mcb37852233" y="683.287059"/>
      </g>
     </g>
     <g id="text_22">
      <!-- 100 -->
      <g transform="translate(682.53625 697.885496)scale(0.1 -0.1)">
       <use xlink:href="#DejaVuSans-31"/>
       <use x="63.623047" xlink:href="#DejaVuSans-30"/>
       <use x="127.246094" xlink:href="#DejaVuSans-30"/>
      </g>
     </g>
    </g>
   </g>
   <g id="matplotlib.axis_4">
    <g id="ytick_8">
     <g id="line2d_22">
      <g>
       <use style="stroke:#000000;stroke-width:0.8;" x="42.84" xlink:href="#m80712807b8" y="683.287059"/>
      </g>
     </g>
     <g id="text_23">
      <!-- 0 -->
      <g transform="translate(29.4775 687.086278)scale(0.1 -0.1)">
       <use xlink:href="#DejaVuSans-30"/>
      </g>
     </g>
    </g>
    <g id="ytick_9">
     <g id="line2d_23">
      <g>
       <use style="stroke:#000000;stroke-width:0.8;" x="42.84" xlink:href="#m80712807b8" y="623.348235"/>
      </g>
     </g>
     <g id="text_24">
      <!-- 50 -->
      <g transform="translate(23.115 627.147454)scale(0.1 -0.1)">
       <use xlink:href="#DejaVuSans-35"/>
       <use x="63.623047" xlink:href="#DejaVuSans-30"/>
      </g>
     </g>
    </g>
    <g id="ytick_10">
     <g id="line2d_24">
      <g>
       <use style="stroke:#000000;stroke-width:0.8;" x="42.84" xlink:href="#m80712807b8" y="563.409412"/>
      </g>
     </g>
     <g id="text_25">
      <!-- 100 -->
      <g transform="translate(16.7525 567.208631)scale(0.1 -0.1)">
       <use xlink:href="#DejaVuSans-31"/>
       <use x="63.623047" xlink:href="#DejaVuSans-30"/>
       <use x="127.246094" xlink:href="#DejaVuSans-30"/>
      </g>
     </g>
    </g>
    <g id="ytick_11">
     <g id="line2d_25">
      <g>
       <use style="stroke:#000000;stroke-width:0.8;" x="42.84" xlink:href="#m80712807b8" y="503.470588"/>
      </g>
     </g>
     <g id="text_26">
      <!-- 150 -->
      <g transform="translate(16.7525 507.269807)scale(0.1 -0.1)">
       <use xlink:href="#DejaVuSans-31"/>
       <use x="63.623047" xlink:href="#DejaVuSans-35"/>
       <use x="127.246094" xlink:href="#DejaVuSans-30"/>
      </g>
     </g>
    </g>
    <g id="ytick_12">
     <g id="line2d_26">
      <g>
       <use style="stroke:#000000;stroke-width:0.8;" x="42.84" xlink:href="#m80712807b8" y="443.531765"/>
      </g>
     </g>
     <g id="text_27">
      <!-- 200 -->
      <g transform="translate(16.7525 447.330983)scale(0.1 -0.1)">
       <use xlink:href="#DejaVuSans-32"/>
       <use x="63.623047" xlink:href="#DejaVuSans-30"/>
       <use x="127.246094" xlink:href="#DejaVuSans-30"/>
      </g>
     </g>
    </g>
    <g id="ytick_13">
     <g id="line2d_27">
      <g>
       <use style="stroke:#000000;stroke-width:0.8;" x="42.84" xlink:href="#m80712807b8" y="383.592941"/>
      </g>
     </g>
     <g id="text_28">
      <!-- 250 -->
      <g transform="translate(16.7525 387.39216)scale(0.1 -0.1)">
       <use xlink:href="#DejaVuSans-32"/>
       <use x="63.623047" xlink:href="#DejaVuSans-35"/>
       <use x="127.246094" xlink:href="#DejaVuSans-30"/>
      </g>
     </g>
    </g>
   </g>
   <g id="patch_47">
    <path d="M 42.84 683.287059 
L 42.84 383.592941 
" style="fill:none;stroke:#000000;stroke-linecap:square;stroke-linejoin:miter;stroke-width:0.8;"/>
   </g>
   <g id="patch_48">
    <path d="M 692.08 683.287059 
L 692.08 383.592941 
" style="fill:none;stroke:#000000;stroke-linecap:square;stroke-linejoin:miter;stroke-width:0.8;"/>
   </g>
   <g id="patch_49">
    <path d="M 42.84 683.287059 
L 692.08 683.287059 
" style="fill:none;stroke:#000000;stroke-linecap:square;stroke-linejoin:miter;stroke-width:0.8;"/>
   </g>
   <g id="patch_50">
    <path d="M 42.84 383.592941 
L 692.08 383.592941 
" style="fill:none;stroke:#000000;stroke-linecap:square;stroke-linejoin:miter;stroke-width:0.8;"/>
   </g>
   <g id="text_29">
    <!-- Wait Time (TQ = 3, $\lambda=1/8$, jobs= 1000) -->
    <defs>
     <path d="M 3.328125 72.90625 
L 13.28125 72.90625 
L 28.609375 11.28125 
L 43.890625 72.90625 
L 54.984375 72.90625 
L 70.3125 11.28125 
L 85.59375 72.90625 
L 95.609375 72.90625 
L 77.296875 0 
L 64.890625 0 
L 49.515625 63.28125 
L 33.984375 0 
L 21.578125 0 
z
" id="DejaVuSans-57"/>
     <path d="M 18.3125 70.21875 
L 18.3125 54.6875 
L 36.8125 54.6875 
L 36.8125 47.703125 
L 18.3125 47.703125 
L 18.3125 18.015625 
Q 18.3125 11.328125 20.140625 9.421875 
Q 21.96875 7.515625 27.59375 7.515625 
L 36.8125 7.515625 
L 36.8125 0 
L 27.59375 0 
Q 17.1875 0 13.234375 3.875 
Q 9.28125 7.765625 9.28125 18.015625 
L 9.28125 47.703125 
L 2.6875 47.703125 
L 2.6875 54.6875 
L 9.28125 54.6875 
L 9.28125 70.21875 
z
" id="DejaVuSans-74"/>
    </defs>
    <g transform="translate(246.74 377.592941)scale(0.12 -0.12)">
     <use transform="translate(0 0.015625)" xlink:href="#DejaVuSans-57"/>
     <use transform="translate(98.876953 0.015625)" xlink:href="#DejaVuSans-61"/>
     <use transform="translate(160.15625 0.015625)" xlink:href="#DejaVuSans-69"/>
     <use transform="translate(187.939453 0.015625)" xlink:href="#DejaVuSans-74"/>
     <use transform="translate(227.148438 0.015625)" xlink:href="#DejaVuSans-20"/>
     <use transform="translate(258.935547 0.015625)" xlink:href="#DejaVuSans-54"/>
     <use transform="translate(320.019531 0.015625)" xlink:href="#DejaVuSans-69"/>
     <use transform="translate(347.802734 0.015625)" xlink:href="#DejaVuSans-6d"/>
     <use transform="translate(445.214844 0.015625)" xlink:href="#DejaVuSans-65"/>
     <use transform="translate(506.738281 0.015625)" xlink:href="#DejaVuSans-20"/>
     <use transform="translate(538.525391 0.015625)" xlink:href="#DejaVuSans-28"/>
     <use transform="translate(577.539062 0.015625)" xlink:href="#DejaVuSans-54"/>
     <use transform="translate(638.623047 0.015625)" xlink:href="#DejaVuSans-51"/>
     <use transform="translate(717.333984 0.015625)" xlink:href="#DejaVuSans-20"/>
     <use transform="translate(749.121094 0.015625)" xlink:href="#DejaVuSans-3d"/>
     <use transform="translate(832.910156 0.015625)" xlink:href="#DejaVuSans-20"/>
     <use transform="translate(864.697266 0.015625)" xlink:href="#DejaVuSans-33"/>
     <use transform="translate(928.320312 0.015625)" xlink:href="#DejaVuSans-2c"/>
     <use transform="translate(960.107422 0.015625)" xlink:href="#DejaVuSans-20"/>
     <use transform="translate(991.894531 0.015625)" xlink:href="#DejaVuSans-Oblique-3bb"/>
     <use transform="translate(1070.556641 0.015625)" xlink:href="#DejaVuSans-3d"/>
     <use transform="translate(1173.828125 0.015625)" xlink:href="#DejaVuSans-31"/>
     <use transform="translate(1237.451172 0.015625)" xlink:href="#DejaVuSans-2f"/>
     <use transform="translate(1271.064453 0.015625)" xlink:href="#DejaVuSans-38"/>
     <use transform="translate(1334.6875 0.015625)" xlink:href="#DejaVuSans-2c"/>
     <use transform="translate(1366.474609 0.015625)" xlink:href="#DejaVuSans-20"/>
     <use transform="translate(1398.261719 0.015625)" xlink:href="#DejaVuSans-6a"/>
     <use transform="translate(1426.044922 0.015625)" xlink:href="#DejaVuSans-6f"/>
     <use transform="translate(1487.226562 0.015625)" xlink:href="#DejaVuSans-62"/>
     <use transform="translate(1550.703125 0.015625)" xlink:href="#DejaVuSans-73"/>
     <use transform="translate(1602.802734 0.015625)" xlink:href="#DejaVuSans-3d"/>
     <use transform="translate(1686.591797 0.015625)" xlink:href="#DejaVuSans-20"/>
     <use transform="translate(1718.378906 0.015625)" xlink:href="#DejaVuSans-31"/>
     <use transform="translate(1782.001953 0.015625)" xlink:href="#DejaVuSans-30"/>
     <use transform="translate(1845.625 0.015625)" xlink:href="#DejaVuSans-30"/>
     <use transform="translate(1909.248047 0.015625)" xlink:href="#DejaVuSans-30"/>
     <use transform="translate(1972.871094 0.015625)" xlink:href="#DejaVuSans-29"/>
    </g>
   </g>
  </g>
  <g id="axes_3">
   <g id="patch_51">
    <path d="M 42.84 1042.92 
L 692.08 1042.92 
L 692.08 743.225882 
L 42.84 743.225882 
z
" style="fill:#ffffff;"/>
   </g>
   <g id="patch_52">
    <path clip-path="url(#p093903efef)" d="M 42.84 1042.92 
L 68.8096 1042.92 
L 68.8096 782.785506 
L 42.84 782.785506 
z
" style="fill:#1f77b4;"/>
   </g>
   <g id="patch_53">
    <path clip-path="url(#p093903efef)" d="M 68.8096 1042.92 
L 94.7792 1042.92 
L 94.7792 869.097412 
L 68.8096 869.097412 
z
" style="fill:#1f77b4;"/>
   </g>
   <g id="patch_54">
    <path clip-path="url(#p093903efef)" d="M 94.7792 1042.92 
L 120.7488 1042.92 
L 120.7488 908.657035 
L 94.7792 908.657035 
z
" style="fill:#1f77b4;"/>
   </g>
   <g id="patch_55">
    <path clip-path="url(#p093903efef)" d="M 120.7488 1042.92 
L 146.7184 1042.92 
L 146.7184 935.030118 
L 120.7488 935.030118 
z
" style="fill:#1f77b4;"/>
   </g>
   <g id="patch_56">
    <path clip-path="url(#p093903efef)" d="M 146.7184 1042.92 
L 172.688 1042.92 
L 172.688 931.433788 
L 146.7184 931.433788 
z
" style="fill:#1f77b4;"/>
   </g>
   <g id="patch_57">
    <path clip-path="url(#p093903efef)" d="M 172.688 1042.92 
L 198.6576 1042.92 
L 198.6576 953.011765 
L 172.688 953.011765 
z
" style="fill:#1f77b4;"/>
   </g>
   <g id="patch_58">
    <path clip-path="url(#p093903efef)" d="M 198.6576 1042.92 
L 224.6272 1042.92 
L 224.6272 979.384847 
L 198.6576 979.384847 
z
" style="fill:#1f77b4;"/>
   </g>
   <g id="patch_59">
    <path clip-path="url(#p093903efef)" d="M 224.6272 1042.92 
L 250.5968 1042.92 
L 250.5968 982.981176 
L 224.6272 982.981176 
z
" style="fill:#1f77b4;"/>
   </g>
   <g id="patch_60">
    <path clip-path="url(#p093903efef)" d="M 250.5968 1042.92 
L 276.5664 1042.92 
L 276.5664 984.179953 
L 250.5968 984.179953 
z
" style="fill:#1f77b4;"/>
   </g>
   <g id="patch_61">
    <path clip-path="url(#p093903efef)" d="M 276.5664 1042.92 
L 302.536 1042.92 
L 302.536 1002.1616 
L 276.5664 1002.1616 
z
" style="fill:#1f77b4;"/>
   </g>
   <g id="patch_62">
    <path clip-path="url(#p093903efef)" d="M 302.536 1042.92 
L 328.5056 1042.92 
L 328.5056 1018.944471 
L 302.536 1018.944471 
z
" style="fill:#1f77b4;"/>
   </g>
   <g id="patch_63">
    <path clip-path="url(#p093903efef)" d="M 328.5056 1042.92 
L 354.4752 1042.92 
L 354.4752 1032.131012 
L 328.5056 1032.131012 
z
" style="fill:#1f77b4;"/>
   </g>
   <g id="patch_64">
    <path clip-path="url(#p093903efef)" d="M 354.4752 1042.92 
L 380.4448 1042.92 
L 380.4448 1022.5408 
L 354.4752 1022.5408 
z
" style="fill:#1f77b4;"/>
   </g>
   <g id="patch_65">
    <path clip-path="url(#p093903efef)" d="M 380.4448 1042.92 
L 406.4144 1042.92 
L 406.4144 1024.938353 
L 380.4448 1024.938353 
z
" style="fill:#1f77b4;"/>
   </g>
   <g id="patch_66">
    <path clip-path="url(#p093903efef)" d="M 406.4144 1042.92 
L 432.384 1042.92 
L 432.384 1034.528565 
L 406.4144 1034.528565 
z
" style="fill:#1f77b4;"/>
   </g>
   <g id="patch_67">
    <path clip-path="url(#p093903efef)" d="M 432.384 1042.92 
L 458.3536 1042.92 
L 458.3536 1040.522447 
L 432.384 1040.522447 
z
" style="fill:#1f77b4;"/>
   </g>
   <g id="patch_68">
    <path clip-path="url(#p093903efef)" d="M 458.3536 1042.92 
L 484.3232 1042.92 
L 484.3232 1038.124894 
L 458.3536 1038.124894 
z
" style="fill:#1f77b4;"/>
   </g>
   <g id="patch_69">
    <path clip-path="url(#p093903efef)" d="M 484.3232 1042.92 
L 510.2928 1042.92 
L 510.2928 1036.926118 
L 484.3232 1036.926118 
z
" style="fill:#1f77b4;"/>
   </g>
   <g id="patch_70">
    <path clip-path="url(#p093903efef)" d="M 510.2928 1042.92 
L 536.2624 1042.92 
L 536.2624 1041.721224 
L 510.2928 1041.721224 
z
" style="fill:#1f77b4;"/>
   </g>
   <g id="patch_71">
    <path clip-path="url(#p093903efef)" d="M 536.2624 1042.92 
L 562.232 1042.92 
L 562.232 1040.522447 
L 536.2624 1040.522447 
z
" style="fill:#1f77b4;"/>
   </g>
   <g id="matplotlib.axis_5">
    <g id="xtick_15">
     <g id="line2d_28">
      <g>
       <use style="stroke:#000000;stroke-width:0.8;" x="42.84" xlink:href="#mcb37852233" y="1042.92"/>
      </g>
     </g>
     <g id="text_30">
      <!-- 0 -->
      <g transform="translate(39.65875 1057.518438)scale(0.1 -0.1)">
       <use xlink:href="#DejaVuSans-30"/>
      </g>
     </g>
    </g>
    <g id="xtick_16">
     <g id="line2d_29">
      <g>
       <use style="stroke:#000000;stroke-width:0.8;" x="172.688" xlink:href="#mcb37852233" y="1042.92"/>
      </g>
     </g>
     <g id="text_31">
      <!-- 20 -->
      <g transform="translate(166.3255 1057.518438)scale(0.1 -0.1)">
       <use xlink:href="#DejaVuSans-32"/>
       <use x="63.623047" xlink:href="#DejaVuSans-30"/>
      </g>
     </g>
    </g>
    <g id="xtick_17">
     <g id="line2d_30">
      <g>
       <use style="stroke:#000000;stroke-width:0.8;" x="302.536" xlink:href="#mcb37852233" y="1042.92"/>
      </g>
     </g>
     <g id="text_32">
      <!-- 40 -->
      <g transform="translate(296.1735 1057.518438)scale(0.1 -0.1)">
       <use xlink:href="#DejaVuSans-34"/>
       <use x="63.623047" xlink:href="#DejaVuSans-30"/>
      </g>
     </g>
    </g>
    <g id="xtick_18">
     <g id="line2d_31">
      <g>
       <use style="stroke:#000000;stroke-width:0.8;" x="432.384" xlink:href="#mcb37852233" y="1042.92"/>
      </g>
     </g>
     <g id="text_33">
      <!-- 60 -->
      <g transform="translate(426.0215 1057.518438)scale(0.1 -0.1)">
       <use xlink:href="#DejaVuSans-36"/>
       <use x="63.623047" xlink:href="#DejaVuSans-30"/>
      </g>
     </g>
    </g>
    <g id="xtick_19">
     <g id="line2d_32">
      <g>
       <use style="stroke:#000000;stroke-width:0.8;" x="562.232" xlink:href="#mcb37852233" y="1042.92"/>
      </g>
     </g>
     <g id="text_34">
      <!-- 80 -->
      <g transform="translate(555.8695 1057.518438)scale(0.1 -0.1)">
       <use xlink:href="#DejaVuSans-38"/>
       <use x="63.623047" xlink:href="#DejaVuSans-30"/>
      </g>
     </g>
    </g>
    <g id="xtick_20">
     <g id="line2d_33">
      <g>
       <use style="stroke:#000000;stroke-width:0.8;" x="692.08" xlink:href="#mcb37852233" y="1042.92"/>
      </g>
     </g>
     <g id="text_35">
      <!-- 100 -->
      <g transform="translate(682.53625 1057.518438)scale(0.1 -0.1)">
       <use xlink:href="#DejaVuSans-31"/>
       <use x="63.623047" xlink:href="#DejaVuSans-30"/>
       <use x="127.246094" xlink:href="#DejaVuSans-30"/>
      </g>
     </g>
    </g>
   </g>
   <g id="matplotlib.axis_6">
    <g id="ytick_14">
     <g id="line2d_34">
      <g>
       <use style="stroke:#000000;stroke-width:0.8;" x="42.84" xlink:href="#m80712807b8" y="1042.92"/>
      </g>
     </g>
     <g id="text_36">
      <!-- 0 -->
      <g transform="translate(29.4775 1046.719219)scale(0.1 -0.1)">
       <use xlink:href="#DejaVuSans-30"/>
      </g>
     </g>
    </g>
    <g id="ytick_15">
     <g id="line2d_35">
      <g>
       <use style="stroke:#000000;stroke-width:0.8;" x="42.84" xlink:href="#m80712807b8" y="982.981176"/>
      </g>
     </g>
     <g id="text_37">
      <!-- 50 -->
      <g transform="translate(23.115 986.780395)scale(0.1 -0.1)">
       <use xlink:href="#DejaVuSans-35"/>
       <use x="63.623047" xlink:href="#DejaVuSans-30"/>
      </g>
     </g>
    </g>
    <g id="ytick_16">
     <g id="line2d_36">
      <g>
       <use style="stroke:#000000;stroke-width:0.8;" x="42.84" xlink:href="#m80712807b8" y="923.042353"/>
      </g>
     </g>
     <g id="text_38">
      <!-- 100 -->
      <g transform="translate(16.7525 926.841572)scale(0.1 -0.1)">
       <use xlink:href="#DejaVuSans-31"/>
       <use x="63.623047" xlink:href="#DejaVuSans-30"/>
       <use x="127.246094" xlink:href="#DejaVuSans-30"/>
      </g>
     </g>
    </g>
    <g id="ytick_17">
     <g id="line2d_37">
      <g>
       <use style="stroke:#000000;stroke-width:0.8;" x="42.84" xlink:href="#m80712807b8" y="863.103529"/>
      </g>
     </g>
     <g id="text_39">
      <!-- 150 -->
      <g transform="translate(16.7525 866.902748)scale(0.1 -0.1)">
       <use xlink:href="#DejaVuSans-31"/>
       <use x="63.623047" xlink:href="#DejaVuSans-35"/>
       <use x="127.246094" xlink:href="#DejaVuSans-30"/>
      </g>
     </g>
    </g>
    <g id="ytick_18">
     <g id="line2d_38">
      <g>
       <use style="stroke:#000000;stroke-width:0.8;" x="42.84" xlink:href="#m80712807b8" y="803.164706"/>
      </g>
     </g>
     <g id="text_40">
      <!-- 200 -->
      <g transform="translate(16.7525 806.963925)scale(0.1 -0.1)">
       <use xlink:href="#DejaVuSans-32"/>
       <use x="63.623047" xlink:href="#DejaVuSans-30"/>
       <use x="127.246094" xlink:href="#DejaVuSans-30"/>
      </g>
     </g>
    </g>
    <g id="ytick_19">
     <g id="line2d_39">
      <g>
       <use style="stroke:#000000;stroke-width:0.8;" x="42.84" xlink:href="#m80712807b8" y="743.225882"/>
      </g>
     </g>
     <g id="text_41">
      <!-- 250 -->
      <g transform="translate(16.7525 747.025101)scale(0.1 -0.1)">
       <use xlink:href="#DejaVuSans-32"/>
       <use x="63.623047" xlink:href="#DejaVuSans-35"/>
       <use x="127.246094" xlink:href="#DejaVuSans-30"/>
      </g>
     </g>
    </g>
   </g>
   <g id="patch_72">
    <path d="M 42.84 1042.92 
L 42.84 743.225882 
" style="fill:none;stroke:#000000;stroke-linecap:square;stroke-linejoin:miter;stroke-width:0.8;"/>
   </g>
   <g id="patch_73">
    <path d="M 692.08 1042.92 
L 692.08 743.225882 
" style="fill:none;stroke:#000000;stroke-linecap:square;stroke-linejoin:miter;stroke-width:0.8;"/>
   </g>
   <g id="patch_74">
    <path d="M 42.84 1042.92 
L 692.08 1042.92 
" style="fill:none;stroke:#000000;stroke-linecap:square;stroke-linejoin:miter;stroke-width:0.8;"/>
   </g>
   <g id="patch_75">
    <path d="M 42.84 743.225882 
L 692.08 743.225882 
" style="fill:none;stroke:#000000;stroke-linecap:square;stroke-linejoin:miter;stroke-width:0.8;"/>
   </g>
   <g id="text_42">
    <!-- Turnaround Time (TQ = 3, $\lambda=1/8$, jobs= 1000) -->
    <defs>
     <path d="M 54.890625 33.015625 
L 54.890625 0 
L 45.90625 0 
L 45.90625 32.71875 
Q 45.90625 40.484375 42.875 44.328125 
Q 39.84375 48.1875 33.796875 48.1875 
Q 26.515625 48.1875 22.3125 43.546875 
Q 18.109375 38.921875 18.109375 30.90625 
L 18.109375 0 
L 9.078125 0 
L 9.078125 54.6875 
L 18.109375 54.6875 
L 18.109375 46.1875 
Q 21.34375 51.125 25.703125 53.5625 
Q 30.078125 56 35.796875 56 
Q 45.21875 56 50.046875 50.171875 
Q 54.890625 44.34375 54.890625 33.015625 
" id="DejaVuSans-6e"/>
    </defs>
    <g transform="translate(225.38 737.225882)scale(0.12 -0.12)">
     <use transform="translate(0 0.015625)" xlink:href="#DejaVuSans-54"/>
     <use transform="translate(61.083984 0.015625)" xlink:href="#DejaVuSans-75"/>
     <use transform="translate(124.462891 0.015625)" xlink:href="#DejaVuSans-72"/>
     <use transform="translate(165.576172 0.015625)" xlink:href="#DejaVuSans-6e"/>
     <use transform="translate(228.955078 0.015625)" xlink:href="#DejaVuSans-61"/>
     <use transform="translate(290.234375 0.015625)" xlink:href="#DejaVuSans-72"/>
     <use transform="translate(331.347656 0.015625)" xlink:href="#DejaVuSans-6f"/>
     <use transform="translate(392.529297 0.015625)" xlink:href="#DejaVuSans-75"/>
     <use transform="translate(455.908203 0.015625)" xlink:href="#DejaVuSans-6e"/>
     <use transform="translate(519.287109 0.015625)" xlink:href="#DejaVuSans-64"/>
     <use transform="translate(582.763672 0.015625)" xlink:href="#DejaVuSans-20"/>
     <use transform="translate(614.550781 0.015625)" xlink:href="#DejaVuSans-54"/>
     <use transform="translate(675.634766 0.015625)" xlink:href="#DejaVuSans-69"/>
     <use transform="translate(703.417969 0.015625)" xlink:href="#DejaVuSans-6d"/>
     <use transform="translate(800.830078 0.015625)" xlink:href="#DejaVuSans-65"/>
     <use transform="translate(862.353516 0.015625)" xlink:href="#DejaVuSans-20"/>
     <use transform="translate(894.140625 0.015625)" xlink:href="#DejaVuSans-28"/>
     <use transform="translate(933.154297 0.015625)" xlink:href="#DejaVuSans-54"/>
     <use transform="translate(994.238281 0.015625)" xlink:href="#DejaVuSans-51"/>
     <use transform="translate(1072.949219 0.015625)" xlink:href="#DejaVuSans-20"/>
     <use transform="translate(1104.736328 0.015625)" xlink:href="#DejaVuSans-3d"/>
     <use transform="translate(1188.525391 0.015625)" xlink:href="#DejaVuSans-20"/>
     <use transform="translate(1220.3125 0.015625)" xlink:href="#DejaVuSans-33"/>
     <use transform="translate(1283.935547 0.015625)" xlink:href="#DejaVuSans-2c"/>
     <use transform="translate(1315.722656 0.015625)" xlink:href="#DejaVuSans-20"/>
     <use transform="translate(1347.509766 0.015625)" xlink:href="#DejaVuSans-Oblique-3bb"/>
     <use transform="translate(1426.171875 0.015625)" xlink:href="#DejaVuSans-3d"/>
     <use transform="translate(1529.443359 0.015625)" xlink:href="#DejaVuSans-31"/>
     <use transform="translate(1593.066406 0.015625)" xlink:href="#DejaVuSans-2f"/>
     <use transform="translate(1626.679688 0.015625)" xlink:href="#DejaVuSans-38"/>
     <use transform="translate(1690.302734 0.015625)" xlink:href="#DejaVuSans-2c"/>
     <use transform="translate(1722.089844 0.015625)" xlink:href="#DejaVuSans-20"/>
     <use transform="translate(1753.876953 0.015625)" xlink:href="#DejaVuSans-6a"/>
     <use transform="translate(1781.660156 0.015625)" xlink:href="#DejaVuSans-6f"/>
     <use transform="translate(1842.841797 0.015625)" xlink:href="#DejaVuSans-62"/>
     <use transform="translate(1906.318359 0.015625)" xlink:href="#DejaVuSans-73"/>
     <use transform="translate(1958.417969 0.015625)" xlink:href="#DejaVuSans-3d"/>
     <use transform="translate(2042.207031 0.015625)" xlink:href="#DejaVuSans-20"/>
     <use transform="translate(2073.994141 0.015625)" xlink:href="#DejaVuSans-31"/>
     <use transform="translate(2137.617188 0.015625)" xlink:href="#DejaVuSans-30"/>
     <use transform="translate(2201.240234 0.015625)" xlink:href="#DejaVuSans-30"/>
     <use transform="translate(2264.863281 0.015625)" xlink:href="#DejaVuSans-30"/>
     <use transform="translate(2328.486328 0.015625)" xlink:href="#DejaVuSans-29"/>
    </g>
   </g>
  </g>
 </g>
 <defs>
  <clipPath id="p87eab516a8">
   <rect height="299.694118" width="649.24" x="42.84" y="23.96"/>
  </clipPath>
  <clipPath id="p0ebe864552">
   <rect height="299.694118" width="649.24" x="42.84" y="383.592941"/>
  </clipPath>
  <clipPath id="p093903efef">
   <rect height="299.694118" width="649.24" x="42.84" y="743.225882"/>
  </clipPath>
 </defs>
</svg>
